<svg id="Layer_1" data-name="Layer 1" xmlns="http://www.w3.org/2000/svg" viewBox="0 0 69.69 75.32"><defs><style>.cls-1{fill:#fff;}</style></defs><title>Cloud-white-small</title><g id="xSLOxl.tif"><path class="cls-1" d="M45.29,52.59h.54a1,1,0,0,0,.25.08,7.16,7.16,0,0,1,6.64,6.52c0,.28.14.37.42.43a6.58,6.58,0,0,1,3.3,1.81,7.22,7.22,0,0,1,1.7,2.84A5.89,5.89,0,0,1,65,67.41l.42-.27a4.17,4.17,0,0,1,4.88.1,4.83,4.83,0,0,1,1.64,2.4c0,.07,0,.2-.06.21a2.29,2.29,0,0,1-.37,0H25.33v-.54c0-.12.08-.23.11-.35a5.33,5.33,0,0,1,3.34-4,5.41,5.41,0,0,1,3.92,0,1.39,1.39,0,0,0,0-.23A5.56,5.56,0,0,1,38,59.48c.36,0,.37-.23.41-.49a7,7,0,0,1,4.77-5.92A16.47,16.47,0,0,1,45.29,52.59Z" transform="translate(-18.08 -10.98)"/></g><path class="cls-1" d="M62.13,77.16l.68-.1,0-.19Z" transform="translate(-18.08 -10.98)"/><path class="cls-1" d="M61.79,79.58l.22,0A.94.94,0,0,1,62,79.4Z" transform="translate(-18.08 -10.98)"/><path class="cls-1" d="M62.77,76.87a3.89,3.89,0,0,1-.3-2.13L64,74.51c.33-.44-.11-.77-.17-1.16.38-.06.76-.11.73-.31.18-.54-.29-.82-1-.82C62.19,74.63,58.19,76,62.77,76.87Z" transform="translate(-18.08 -10.98)"/><path class="cls-1" d="M60,78.85l2-.28c.14-.48.36-1,.09-1.38A5.11,5.11,0,0,0,60,78.85Z" transform="translate(-18.08 -10.98)"/><path class="cls-1" d="M56.66,53.11c.09.08.12.15-.25.29l.25-.29c-.07-.08-.21-.17-.15-.35a33.37,33.37,0,0,1-2.65,3.6c0,.28,0,.57.08.84,2.5-2.85,5.06-5.63,6.27-8.62C58.8,50.2,58.05,51.54,56.66,53.11Z" transform="translate(-18.08 -10.98)"/><path class="cls-1" d="M54.6,58.22l-.26.29C54.71,58.37,54.69,58.3,54.6,58.22Z" transform="translate(-18.08 -10.98)"/><path class="cls-1" d="M56.11,35.65a22.16,22.16,0,0,0-4.07,5c3-3,6.38-5.83,8.62-8.21Z" transform="translate(-18.08 -10.98)"/><path class="cls-1" d="M46.3,48.82a17.7,17.7,0,0,0,4.81-5.18c-1.57,1.51-3.11,3-4.56,4.57C46.47,48.41,46.37,48.62,46.3,48.82Z" transform="translate(-18.08 -10.98)"/><path class="cls-1" d="M47.71,45.93A24.42,24.42,0,0,0,52,40.6,31.16,31.16,0,0,0,47.71,45.93Z" transform="translate(-18.08 -10.98)"/><path class="cls-1" d="M81.75,41.29a20.19,20.19,0,0,1-1.44,4c.06.41.11.94.15,1.62l.2-.29c.87-1.92,1.84-4,2.71-6.45a14,14,0,0,0,.44-3A43.48,43.48,0,0,1,81.75,41.29Z" transform="translate(-18.08 -10.98)"/><path class="cls-1" d="M80.31,45.33c-.5-3.5-1.3,2.41,0,0Z" transform="translate(-18.08 -10.98)"/><path class="cls-1" d="M74.15,29.06l0-.22c0-.22-.06-.44-.1-.65C74.11,28.48,74.13,28.76,74.15,29.06Z" transform="translate(-18.08 -10.98)"/><path class="cls-1" d="M58.77,22.72,62.7,20a39.7,39.7,0,0,0-7.32,5.63c.33-.22.77-.28,1.11-.5A7.07,7.07,0,0,1,58.77,22.72Z" transform="translate(-18.08 -10.98)"/><path class="cls-1" d="M71.13,40.24a32,32,0,0,0,2.4-5.76,14.78,14.78,0,0,0,.64-5.64A5.81,5.81,0,0,0,73,24.53a3.05,3.05,0,0,0-3.4-.52,10.63,10.63,0,0,0-2.11,1c-.35.22-.7.46-1.05.71l-1.09.82a39.87,39.87,0,0,0-4,3.54c-4.15,4.44-13,10.63-15.11,16.9.51-.36,1-.72,1.42-1.1a15.32,15.32,0,0,0-1.16,2.28,105,105,0,0,0-8.89,10.52c-.67.9-1.3,1.81-1.92,2.73S34.49,63.32,34,64.13a19.65,19.65,0,0,0-1.14,2.2c-.14.32-.25.61-.34.88s-.07.24-.1.37c-.06.28.53.46.55.63a1.09,1.09,0,0,0,.28.49l.12-.08a.89.89,0,0,0,.47.2H34l.55.26q.64.3,1.32.54a20.63,20.63,0,0,0,6.28,1.1,66.78,66.78,0,0,0,6.94.46c.94,0,1,.76,1.63.92a23.36,23.36,0,0,0,8.17,1.36l.08.58a4.91,4.91,0,0,1,1.34-.18C59,76.28,55,77.55,59.54,78.51h0c-.23.09-.44.18-.64.28h-.07v0a5.23,5.23,0,0,0-2.1,1.61l2-.24a1.26,1.26,0,0,0,0,.83l-.15.18-.55.07a1.87,1.87,0,0,0-.16.47c-1.64,1.06-4.41,1.73-3.81,2.5.46.38,1.74-.09,3.18-.52a2,2,0,0,0,.32.17c-1.92.41.16,1.36-1,1.68-1.57.17-3.14.5-4.75.58a77.15,77.15,0,0,1-9.38,0,51.59,51.59,0,0,1-9.46-1.46c-.3-.06-.58-.16-.87-.24a24.09,24.09,0,0,1-4.57-1.87,22.69,22.69,0,0,1-2.17-1.33,17.63,17.63,0,0,1-2.17-1.79l.82.21A17.89,17.89,0,0,1,19,72.41a15.46,15.46,0,0,1-1-5.49A17.79,17.79,0,0,1,18.32,64c.08-.48.18-1,.29-1.44s.22-.88.36-1.31a33.56,33.56,0,0,1,4.63-9.12,152.43,152.43,0,0,1,13-15.92c-1.82,2.23-3.59,4.47-5.51,6.67-.92.94-1.81,1.89-2.62,2.88.92-.95,1.78-1.91,2.62-2.88,3.55-3.6,7.5-6.8,9.3-10.67.42-.14.55,0,.86-.24,2.2-1.8,4.55-3.37,6-5.43-.12-.15.85-.87.3-.95,1.83-1.59,4.17-3.24,6.05-4.93a14.11,14.11,0,0,0,2.24-2.57c.9-.71,1.82-1.41,2.76-2.09s1.77-1.31,3.14-2.14a21.56,21.56,0,0,1,4.94-2.2,16.16,16.16,0,0,1,8.27-.32,15.53,15.53,0,0,1,4.84,2,16.2,16.2,0,0,1,3.91,3.53,18.15,18.15,0,0,1,2.38,4,20.73,20.73,0,0,1,1.2,3.77,22.52,22.52,0,0,1,.38,7,31,31,0,0,1-1.05,5.53,35.32,35.32,0,0,1-4.36,8.9c.83-1.88,1.74-4,2.53-6.33a33.94,33.94,0,0,0,1.73-8,18.63,18.63,0,0,0-.79-10.26,15.3,15.3,0,0,0-3.48-5.37,13.32,13.32,0,0,0-5.76-3.36,14.57,14.57,0,0,0-5.31-.58A14.48,14.48,0,0,1,79,14.32a15.32,15.32,0,0,1,5.45,6,19,19,0,0,1,1.92,6,22.26,22.26,0,0,1,.14,5.45,32.93,32.93,0,0,1-3.16,8.64l0-.17a35,35,0,0,0,1.79-6.81c.15-.57.29-1.15.4-1.74.06-.27.12-.64.17-1s.08-.7.11-1a17.66,17.66,0,0,0-.16-4.22A15.81,15.81,0,0,0,84.32,21a13.79,13.79,0,0,0-3.08-4.14,13,13,0,0,0-2.17-1.57,13.85,13.85,0,0,0-5-1.78,13.35,13.35,0,0,1,4.49,1.83,14.24,14.24,0,0,1,3.52,3.29,16.84,16.84,0,0,1,3,7.11,20.67,20.67,0,0,1,.33,4c0,.33,0,.67,0,1l0,.5,0,.42c0,.57-.12,1.12-.2,1.67a26.43,26.43,0,0,1-1.35,3.79,3.16,3.16,0,0,0,0-.43,5.09,5.09,0,0,0-.57-2.68c-.45-.89-1.07-1.37-1.56-.69A45,45,0,0,1,77,43.92c-.78,1.34-1.48,2.48-2,3.28a6.09,6.09,0,0,1-.88,1.22c-.44-.07.81-2.43,2-4.83a27.18,27.18,0,0,0,2.11-5l-1.17,1.61a16.22,16.22,0,0,0,.44-1.8c.46-1.24,1.4-2.85,1.34-3.88,0-1.77.27-3.38.31-5.37a9.87,9.87,0,0,0-1.6-5.86A8.3,8.3,0,0,0,76,21.78a6.33,6.33,0,0,0-2.1-1,6.05,6.05,0,0,0-4.14.45c.05.36-1.14.42-.67.72-2.11.48-4.31,1.82-4.56,3.25l-.12.1a1.94,1.94,0,0,0-.44.43c-3.21,1.62-4.73,3.93-7,6.37-.85.72-1.73,1.43-2.67,2.12a13.73,13.73,0,0,0,2.16-1.55l.51-.57c2.21-1.85,4.22-3.78,6.37-5.53a8.12,8.12,0,0,1,.58-.84c.18-.09.35-.18.54-.26a2.45,2.45,0,0,1,0-.27,13.89,13.89,0,0,1,6.84-3.61,4.3,4.3,0,0,1,3.15,1.15,5.91,5.91,0,0,1,1.68,3.07,9.66,9.66,0,0,1,.11,3.47,17.64,17.64,0,0,1-.85,3.27A11.21,11.21,0,0,0,75,26.3a13.29,13.29,0,0,1,0,7.32c-.14.35-.29.69-.44,1-.33.72-.68,1.41-1.06,2.1A18,18,0,0,0,74.7,34.9a42.17,42.17,0,0,1-1.47,4.18A72.92,72.92,0,0,1,59,58.36a7.88,7.88,0,0,1-.17-.87c2.5-2.87,5.07-5.73,6.27-8.8-1.42,1.68-2.16,3.05-3.54,4.66-.09-.08-.22-.17-.16-.35a33,33,0,0,1-2.64,3.64c0-.7,0-1.45,0-2.19a13.4,13.4,0,0,1,1.64-2.69c3.08-3.95,6.18-7.51,8.57-11.76a40.57,40.57,0,0,0,3.39-5.35,16.43,16.43,0,0,0,1.82-5.59,18.19,18.19,0,0,1-.9,5.7A49.21,49.21,0,0,1,71.13,40.24ZM51.61,78.5l-1.12.34a1.09,1.09,0,0,1,.17.13A1.52,1.52,0,0,0,51.61,78.5Zm-8.23-.32c2.32.6,5.53.21,8.64-.31a.39.39,0,0,0,0-.15C49.4,77.71,46.27,78.22,43.38,78.18ZM36,72.3l0,.08,0-.09Zm3.62-26.11c-1.47,2.8-4,5.48-6,8.59-.7.86-.75,2.2-1.61,3.36a30.62,30.62,0,0,0-1.73,3.91l.86-.63c-1.43,1.87-.95,3.45-1.84,4.83.18.07.51.34.47.48,0,.74-.45,1.53,0,2.08.28.68.6,1.35,1.26,1.54.09.11.73-.07,1-.07s.48.23.71.32l.06-.15a1.21,1.21,0,0,0-.55-.24,2.43,2.43,0,0,1-1.88-1.38,5.67,5.67,0,0,1-.34-1.46,7,7,0,0,1,0-.8,8.51,8.51,0,0,1,.2-1.22,27.16,27.16,0,0,1,2.53-6.23c.47-1,.8-2.07,1.33-3C35.49,53,38.38,50.2,39,47.67,39.12,47.26,39.67,46.74,39.66,46.19ZM37.06,37a127.45,127.45,0,0,1-8.44,10,27.06,27.06,0,0,0-3.86,6.27c-1,2.38-1.3,4.51.12,4.46-.36-1.4.41-3.5,1.79-5.75A46.94,46.94,0,0,1,32,45.26C35.91,41,39.61,37.77,37.06,37ZM63.6,14.17A31.79,31.79,0,0,0,60.78,16c-.75.53-1.54,1-2.41,1.56.75-.55,1.5-1.09,2.27-1.62.36-.25.85-.57,1.35-.87S63,14.46,63.6,14.17ZM52.42,30.29a39.62,39.62,0,0,1,5.7-5.58c1.05-.85,2.12-1.67,3.21-2.47s2.1-1.57,3.34-2.4a11.57,11.57,0,0,1,3.39-1.47,10,10,0,0,1,4.55-.13,9.19,9.19,0,0,1,4.48,2.41,16.73,16.73,0,0,1,2.73,3.68l.56-.16c-.11-.18-.25-.37-.38-.55a13,13,0,0,0-1.33-3.12,9,9,0,0,0-2.4-2.65l.39.19L76,17.67a7.91,7.91,0,0,0-4.85-1.38,12.07,12.07,0,0,0-2.21.4,16.09,16.09,0,0,0-4.76,1.82,33.82,33.82,0,0,0-3.36,2.19,32.34,32.34,0,0,0-5.45,4.9c-2,2-3.33,4.21-5.16,6.31A13.26,13.26,0,0,0,52.42,30.29Z" transform="translate(-18.08 -10.98)"/><path class="cls-1" d="M75.07,34.19a27.54,27.54,0,0,1-1.84,4.89c-.51,1.28-1,2.51-1.59,3.76-2.84,5.84-8.08,11.21-12.3,16.42a2.43,2.43,0,0,0,1.31,1.19c5.45-4.94,9.7-11.22,14.28-17.35l.06-.19a56.2,56.2,0,0,1,2.4-5.9,16.27,16.27,0,0,0,1.47-7.28,16.7,16.7,0,0,0-.81-3.62,9.83,9.83,0,0,0-1.84-3.23A6,6,0,0,0,73.05,21a5.74,5.74,0,0,0-3.31.28,5.85,5.85,0,0,1,4.29.94,6.35,6.35,0,0,1,2.32,3.71,10.18,10.18,0,0,1,.07,4.29A14.93,14.93,0,0,1,75.07,34.19Z" transform="translate(-18.08 -10.98)"/><path class="cls-1" d="M51.11,43.64q1.55-1.48,3.17-3l8.25-8c-2.19,1.53-4.39,3.15-6.63,4.8C53.77,39.29,52.52,41.52,51.11,43.64Z" transform="translate(-18.08 -10.98)"/><path class="cls-1" d="M64.72,30.61l-2.19,2.06c1.63-1.14,3.25-2.23,4.9-3.26.88-.55,1.49-.94,2.08-1.24a12.18,12.18,0,0,1,1.17-.54.18.18,0,0,0,0-.08,1.61,1.61,0,0,1,0-.29l0-.31a2.28,2.28,0,0,1,.15-.64l0,0h0l.07-.13s0-.06,0,0a2.34,2.34,0,0,1-.46.41c-.24.19-.14.09-.12.11a.23.23,0,0,1,.1.05.89.89,0,0,1,.25.3,3.82,3.82,0,0,1,.4,1.2c0,.23.06.48.08.73s0,.61,0,.93a13.27,13.27,0,0,1-.29,2,25.37,25.37,0,0,1-1.39,4.29,20,20,0,0,1-1,2,25.36,25.36,0,0,0,3.93-7.53,8.38,8.38,0,0,0,.33-3.46,2.88,2.88,0,0,0-1-2,1.9,1.9,0,0,0-1.64-.07,10.17,10.17,0,0,0-2.91,1.51,38.61,38.61,0,0,0-6.19,5.3l-.43.45c2-1.42,4-2.78,6.08-4.06l1.44-.87c.43-.25.84-.47,1.21-.65a7.9,7.9,0,0,1,1.47-.52,17.64,17.64,0,0,0-2.29,1.33c-.27.19-.56.4-.86.63l-1,.77Q65.69,29.79,64.72,30.61Z" transform="translate(-18.08 -10.98)"/><path class="cls-1" d="M75.44,32.56c-.14.36-.26.71-.41,1.06s-.21.85-.33,1.28c.14-.24.25-.48.37-.71C75.22,33.65,75.34,33.1,75.44,32.56Z" transform="translate(-18.08 -10.98)"/><path class="cls-1" d="M76.27,17.85,76,17.67a10.41,10.41,0,0,0-3.68-1.14,11.25,11.25,0,0,0-3.38.16A20.81,20.81,0,0,0,62.7,20a22.13,22.13,0,0,1,5.6-2.67,12.21,12.21,0,0,1,3.84-.48A11,11,0,0,1,76.27,17.85Z" transform="translate(-18.08 -10.98)"/><path class="cls-1" d="M58.45,15.64,57,16.5l-.49.71,1.06-.59Z" transform="translate(-18.08 -10.98)"/><path class="cls-1" d="M40.35,32.24A171.92,171.92,0,0,1,55.83,18.12c.21-.3.42-.61.64-.91A35.52,35.52,0,0,0,46.1,25.72a17.57,17.57,0,0,1-1.8,2.33,61.49,61.49,0,0,0-7.74,8.19c1.19-1.3,2.42-2.58,3.68-3.89Z" transform="translate(-18.08 -10.98)"/></svg>