<?xml version="1.0" encoding="utf-8"?>
<!-- Generator: Adobe Illustrator 23.0.4, SVG Export Plug-In . SVG Version: 6.00 Build 0)  -->
<svg version="1.1" id="Layer_1" xmlns="http://www.w3.org/2000/svg" xmlns:xlink="http://www.w3.org/1999/xlink" x="0px" y="0px"
	 viewBox="0 0 1920 1080" style="enable-background:new 0 0 1920 1080;" xml:space="preserve">
<style type="text/css">
	.st0{fill:#FFFFFF;}
	.st1{font-family:'Ubuntu-Medium';}
	.st2{font-size:339.0857px;}
	.st3{letter-spacing:39;}
</style>
<g id="xSLOxl.tif">
	<g>
		<path class="st0" d="M1614.62,540c1.42,0,2.84,0,4.26,0c0.64,0.22,1.28,0.56,1.94,0.63c29.2,3.28,48.51,22.15,52.46,51.43
			c0.3,2.26,1.12,2.95,3.3,3.42c10.09,2.14,18.75,7.01,26.09,14.3c6.35,6.31,10.51,13.94,13.45,22.41
			c24.17-4.84,42.07,3.61,54.15,24.85c1.16-0.76,2.22-1.44,3.28-2.13c12.25-8.07,26.79-7.76,38.6,0.76
			c6.6,4.77,10.2,11.55,12.92,18.95c-0.14,0.57-0.19,1.58-0.44,1.63c-0.95,0.19-1.97,0.08-2.96,0.08c-121.55,0-243.1,0-364.65,0
			c0-1.42,0-2.84,0-4.26c0.29-0.92,0.65-1.82,0.86-2.75c3.41-15.02,12.06-25.74,26.4-31.51c10.13-4.08,20.47-3.68,30.91-0.09
			c0.18-0.74,0.39-1.25,0.41-1.77c1.12-22.8,19.91-40.69,41.32-41.53c2.86-0.11,2.9-1.81,3.22-3.92
			c3.44-22.9,15.99-38.64,37.66-46.73C1603.11,541.77,1608.98,541.22,1614.62,540z"/>
	</g>
</g>
<g>
	<g>
		<g>
			<g>
				<path class="st0" d="M1752.82,769.89c2.81-0.41,5.47-0.8,5.47-0.8c-0.01-0.06-0.08-0.12-0.12-0.18
					C1756.22,769.27,1754.47,769.59,1752.82,769.89z"/>
				<path class="st0" d="M1747.81,772.99c0.57-0.08,1.15-0.17,1.72-0.25c-0.2-0.02-0.24-0.07-0.36-0.11
					C1748.75,772.75,1748.32,772.87,1747.81,772.99z"/>
				<path class="st0" d="M1758.17,768.9c-0.52-0.65-2.9-1.02-0.23-2.14c3.02-0.45,9.05-1.36,12.1-1.81
					c2.97-0.84-0.12-0.77-0.17-1.16c3.02-0.46,6.05-0.91,6.02-1.1c1.9-0.81-1.42-0.65-7.3,0.11
					C1755.89,766.97,1722.86,772.47,1758.17,768.9z"/>
				<path class="st0" d="M1734.27,773.9c5.3-0.75,10.61-1.5,15.92-2.25c1.59-0.69,3.77-1.46,2.09-1.67
					C1744.09,771.52,1739.12,772.6,1734.27,773.9z"/>
				<path class="st0" d="M1719.89,558.25c0.08,0.09-0.06,0.33-2.05,2.25C1718.55,559.71,1719.21,558.99,1719.89,558.25
					c-0.06-0.1-0.3-0.08,0.59-1.15c-7.03,8.02-15.36,17.29-23.55,26.2c-0.92,1.29-1.8,2.55-2.59,3.71c10.17-11,20.33-22,29.87-32.65
					c9.53-10.65,18.4-20.97,26.06-30.52C1738.85,536.86,1731.11,545.92,1719.89,558.25z"/>
				<path class="st0" d="M1693.6,589.52c-0.71,0.76-1.37,1.48-2.07,2.24C1693.53,589.87,1693.67,589.62,1693.6,589.52z"/>
				<path class="st0" d="M1677.8,375.47c-7.42,5.46-14.2,10.84-20.76,16.06c-3.26,2.63-6.43,5.28-9.6,7.89
					c-1.58,1.31-3.15,2.61-4.72,3.92l-4.65,3.98c26.91-21.83,55.66-42.86,77.26-58.04C1702.71,357.7,1690.23,366.46,1677.8,375.47z"
					/>
				<path class="st0" d="M1577.9,461.52c16.98-15.04,30.98-27.43,44.35-39.27c-13.97,11.64-27.64,23.44-40.77,35.66
					C1580.29,459.11,1579.04,460.37,1577.9,461.52z"/>
				<path class="st0" d="M1595.88,443.87c15.69-13.62,28.89-25.28,42.19-36.56c-3.79,3.11-7.6,6.14-11.27,9.26
					c-3.67,3.12-7.31,6.2-10.88,9.23C1608.88,432,1602.07,437.98,1595.88,443.87z"/>
				<path class="st0" d="M1844.51,418.68c-3.2,6.39-6.03,11.35-8.31,15.27c-2.28,3.91-4.07,6.74-5.37,8.8
					c-0.97,1.92-2.24,4.5-4.09,7.88c0.46-0.67,0.96-1.39,1.42-2.05c7.84-12.19,15.54-25,22.11-38.82c1.31-2.83,2.45-5.69,3.55-8.38
					c1.02-2.74,2.02-5.3,2.76-7.73C1853.09,402.33,1848.95,410.7,1844.51,418.68z"/>
				<path class="st0" d="M1830.83,442.74c4.04-8.33,1.5-4.31-0.78-0.24C1827.73,446.54,1825.67,450.67,1830.83,442.74z"/>
				<path class="st0" d="M1854.83,355.5c0.06-0.68,0.12-1.37,0.17-2.06c0.16-1.98,0.16-4.02,0.17-5.99
					c-0.03,1.37-0.02,2.71-0.08,4.04C1855.01,352.82,1854.92,354.15,1854.83,355.5z"/>
				<path class="st0" d="M1734.57,326.09c10.31-6.45,20.78-12.68,31.22-18.58c-21.63,11.98-42.6,25.44-59.36,37.39
					c2.54-1.71,5.23-3.25,7.79-4.94C1719.14,336.27,1726.66,330.93,1734.57,326.09z"/>
				<path class="st0" d="M1818.51,442.31c9.16-13.9,17.61-28.13,24.17-42.99c3.27-7.42,6.06-14.99,8.19-22.67
					c2.1-7.66,3.67-15.49,4.13-23.21c0.69-7.84,0.19-15.74-1.47-23.29l-0.74-2.8c-0.13-0.46-0.24-0.93-0.38-1.39l-0.47-1.36
					c-0.32-0.9-0.6-1.82-0.96-2.71l-1.14-2.62c-0.35-0.89-0.86-1.69-1.29-2.54c-0.46-0.83-0.86-1.69-1.42-2.45l-1.56-2.35
					c-0.57-0.75-1.18-1.45-1.77-2.18c-0.3-0.36-0.58-0.74-0.9-1.07l-1-0.98c-0.68-0.63-1.29-1.35-2.02-1.92l-2.18-1.72
					c-0.18-0.14-0.36-0.29-0.55-0.42l-0.59-0.36l-1.18-0.72c-1.52-1.05-3.25-1.72-4.9-2.53c-0.86-0.33-1.74-0.6-2.6-0.9
					c-0.44-0.14-0.86-0.31-1.3-0.43l-1.34-0.3c-7.15-1.76-14.69-1.15-21.86,0.44c-7.19,1.72-14.12,4.39-20.74,7.6
					c-3.33,1.56-6.56,3.32-9.77,5.07c-3.2,1.82-6.41,3.6-9.55,5.46c-12.6,7.34-24.62,15.01-36.09,22.79
					c-10.07,6.89-21.96,15.15-34.62,24.33c-12.67,9.15-26.07,19.28-39.31,29.58c-13.24,10.31-26.16,21-37.97,31.21
					c-11.71,10.32-22.34,20.13-30.81,28.88c1.96-1.72,3.89-3.41,5.77-5.06c1.9-1.64,3.76-3.24,5.59-4.82
					c-5.24,4.84-10,9.59-14.4,14.04c-29.39,27.2-56.84,55.87-81.44,87.01c-1.54,1.94-3.11,3.87-4.63,5.83l-4.48,5.94l-4.49,5.94
					c-1.52,1.97-2.9,4.03-4.36,6.04l-4.33,6.08c-1.45,2.02-2.89,4.05-4.28,6.11c-2.79,4.1-5.51,8.23-8.12,12.4
					c-5.2,8.34-9.98,16.85-13.96,25.63c-3.94,8.77-7.2,17.85-9.11,27.04c-1.15,5.47-1.62,10.35-1.78,15.17
					c-0.14,4.83,0.02,9.63,0.59,15.01c1.2,10.91,4.55,21.07,10.15,29.78c0.06,0.01,0.02-0.12-0.1-0.39
					c2.89,4.55,6.33,8.85,10.29,12.81c1.94,2.01,4.06,3.89,6.19,5.76c2.19,1.82,4.41,3.63,6.76,5.33c4.66,3.42,9.6,6.62,14.79,9.55
					c5.16,2.99,10.45,5.76,15.88,8.31c21.71,10.23,45.35,17.01,70.17,20.9c23.28,3.77,47.03,5.32,70.9,4.85
					c4.48-0.12,6.73,0.03,8.61,0.18c1.88,0.14,3.39,0.32,6.39,0.28c12.01-0.1,22.57-0.51,33.51-1.21
					c10.94-0.71,22.27-1.75,35.87-3.38c0,0,0.05,0.39,0.08,0.58c4.16-0.64,7.89-1.13,10.96-1.51c-6.34,2.02-17.76,4.3-23.2,5.62
					c-2.72,0.66-3.94,1.12-2.28,1.24c1.66,0.13,6.22-0.09,15.05-0.89l0,0.01c-1.94,0.33-3.68,0.62-5.35,0.9
					c-0.21,0.03-0.39,0.05-0.59,0.08c0.02,0,0.02,0.01,0.04,0.02c-4.1,0.71-7.4,1.29-10.28,1.85c-2.88,0.58-5.34,1.12-7.79,1.71
					c5.31-0.58,10.63-1.25,15.95-1.92c-0.97,0.4-1.59,0.76-1.01,0.96c-0.46,0.11-0.88,0.21-1.38,0.34
					c-2.36,0.29-4.35,0.53-4.35,0.53c-0.75,0.24-1.31,0.46-1.67,0.66c-6.91,1.28-15.87,2.55-22.57,3.51
					c-6.7,0.92-11.14,1.61-8.98,1.84c1.65,0.06,5.03-0.22,9.45-0.69c4.41-0.52,9.86-1.2,15.64-2c0.71-0.01,1.52-0.03,2.35-0.07
					c-15.22,1.9,0.16,1.37-8.97,2.57c-12.21,1.3-24.44,2.54-36.72,3.18c-25,1.32-48.19,1.02-71.12-1.31
					c-22.9-2.36-45.63-6.6-69.16-14.49c-2.1-0.64-4.11-1.44-6.16-2.18c-11.3-4.14-22.01-8.99-32.22-14.64
					c-2.53-1.46-5.07-2.88-7.57-4.38c-2.49-1.53-4.96-3.09-7.38-4.75c-4.85-3.3-9.58-6.87-14.05-10.86
					c1.23,0.92,2.55,1.82,3.87,2.78c-7.39-6.09-14.22-13.04-19.78-21.02c-5.59-7.96-9.7-17.02-12.18-26.42
					c-3.09-11.54-3.83-23.62-2.7-35.49c1.11-11.89,4.16-23.6,8.48-34.78c4.32-11.2,9.9-21.92,16.15-32.29
					c3.13-5.18,6.43-10.28,9.84-15.34c1.69-2.54,3.47-5.02,5.24-7.52c1.77-2.5,3.56-5.01,5.34-7.52
					c15.2-20.96,31.41-40.55,48.57-59.39c17.16-18.84,35.28-36.92,54.57-54.7c-15.66,14.66-30.84,29.78-45.96,45.76
					c-3.38,3.6-6.76,7.19-10.11,10.75c-3.3,3.61-6.5,7.26-9.68,10.83c3.32-3.68,6.61-7.32,9.88-10.94
					c3.32-3.57,6.62-7.11,9.91-10.64c13.18-13.69,27.05-27.04,40.32-39.44c13.29-12.37,26-23.74,36.66-33.82
					c2.54-1.91,2.68-1.73,5.06-3.67c16.7-13.67,33.87-26.66,48.27-38.24c-0.13-0.17,7.32-5.66,4.61-4.15
					c14.76-11.11,32.43-23.54,47.73-34.01c6.65-4.5,13.18-9.15,19.8-13.75c7.02-4.47,14.09-8.84,21.26-13.07
					c3.6-2.1,7.19-4.21,10.83-6.25c3.58-2.04,7.39-4.13,11.25-6.09c7.79-3.88,16.02-7.42,25.16-9.68c4.58-1.08,9.33-1.97,14.37-2.1
					c1.24-0.1,2.52-0.05,3.79-0.01c1.28,0.04,2.55,0.04,3.85,0.23c1.29,0.16,2.59,0.29,3.88,0.49l3.89,0.85
					c0.65,0.13,1.29,0.32,1.93,0.54l1.91,0.64l1.91,0.65l1.84,0.83c1.22,0.59,2.48,1.08,3.64,1.78c1.17,0.7,2.34,1.4,3.5,2.13
					c4.51,3.09,8.51,6.9,11.77,11.17c3.18,4.3,5.67,8.94,7.6,13.7c1.85,4.77,3.14,9.64,4.05,14.53c0.81,4.89,1.24,9.8,1.31,14.71
					c0,4.91-0.31,9.82-1,14.72c-1.38,9.44-3.76,18.71-6.86,27.73c-6.16,17.99-16.76,36.69-26.79,51.96
					c7.09-11.46,13.94-23.56,19.68-36.6c5.73-13.02,10.41-27.01,12.62-41.78l0.25-1.33l0.19-1.39l0.38-2.77
					c0.22-1.85,0.35-3.7,0.5-5.54c0.06-1.85,0.16-3.69,0.16-5.53c-0.06-1.85-0.01-3.68-0.17-5.51c-0.46-7.32-1.8-14.58-4.3-21.49
					c-2.49-6.89-6.22-13.45-11.22-18.83c-5-5.38-11.24-9.36-17.46-11.62c-5.83-2.17-11.92-3.09-17.76-3.07
					c1.11,0.04,2.22,0.05,3.34,0.12l3.37,0.4c1.12,0.1,2.24,0.36,3.36,0.61c1.12,0.27,2.25,0.45,3.35,0.81
					c2.2,0.73,4.42,1.4,6.49,2.45l1.58,0.74c0.53,0.24,1.05,0.49,1.54,0.81l3,1.82c1.02,0.57,1.9,1.35,2.84,2.05l1.38,1.08
					c0.46,0.36,0.92,0.72,1.32,1.13c1.67,1.61,3.38,3.2,4.77,5.01l1.09,1.33l0.54,0.67l0.48,0.7l1.9,2.8
					c0.66,0.93,1.12,1.92,1.68,2.89c0.51,0.98,1.12,1.94,1.53,2.94c3.72,7.95,5.79,16.25,6.57,24.43l0.27,3.07
					c0.08,1.02,0.09,2.04,0.13,3.07c0.11,2.05,0.05,4.08,0.02,6.11c-0.03,2.03-0.23,4.06-0.36,6.08l-0.35,3.02l-0.18,1.51
					l-0.23,1.45c-2.92,16.86-9.19,33.07-16.64,47.79c0.14-0.31,0.26-0.59,0.41-0.91c5.59-11.69,10.27-24.19,13.28-37.35
					c0.36-1.55,0.72-3.09,1.08-4.63c0.33-1.55,0.59-3.11,0.89-4.66c0.31-1.52,0.52-3.15,0.73-4.76c0.25-1.6,0.35-3.21,0.49-4.81
					c0.49-6.41,0.32-12.78-0.56-19.01c-0.88-6.22-2.48-12.31-4.95-18.01c-2.46-5.69-5.84-10.99-10.03-15.37
					c-1.09-1.05-2.2-2.09-3.29-3.09c-1.15-0.95-2.36-1.81-3.52-2.66c-5-3.46-10.64-5.89-16.44-7.17c5.4,1.3,10.61,3.54,15.3,6.7
					c4.63,3.23,8.6,7.3,11.76,11.77c0.75,1.14,1.58,2.25,2.24,3.42l1.95,3.54c1.12,2.41,2.24,4.83,3.05,7.3
					c1.71,4.93,2.91,9.95,3.53,14.95c0.83,6.22,0.97,12.43,0.54,18.59c-0.06,0.77-0.1,1.54-0.17,2.31l-0.27,2.3l-0.28,2.3
					l-0.36,2.21c-0.26,1.47-0.46,2.95-0.76,4.41l-0.92,4.36c-1.8,7.24-4.19,14.37-6.96,21.25c0.24-0.75,0.49-1.54,0.71-2.22
					c0.57-1.52,1.14-3.83,1.74-6.23c0.54-2.42,0.99-4.98,1.26-7.05c0.44-4.18,0.28-6.35-1.26-1.79c-1.66,5.93-3.73,12.05-6.2,18.13
					c-2.48,6.07-5.3,12.11-8.33,17.97c-6.04,11.74-12.94,22.7-19.18,32.19c-3.17,4.7-6.11,9.11-8.83,13.01
					c-2.75,3.88-5.13,7.36-7.21,10.18c-2.07,2.83-3.72,5.08-4.86,6.63c-0.57,0.77-1.01,1.37-1.32,1.76
					c-0.16,0.2-0.27,0.35-0.35,0.45c-0.08,0.1-0.12,0.15-0.13,0.14c-1.25,0.98,10.33-14.86,21.02-31.33
					c5.37-8.22,10.5-16.67,14.02-22.99c1.79-3.14,3.13-5.78,4.05-7.5c0.87-1.75,1.28-2.61,1.08-2.27c-2.23,4.05-4.6,8.01-6.99,11.94
					c2.09-3.84,4.07-7.63,5.77-11.19c2.14-4.16,4.57-9.05,6.66-13.7c1.02-2.33,1.98-4.59,2.78-6.65c0.76-2.08,1.46-3.91,1.89-5.43
					c3.21-10.54,6.18-21.91,7.12-34.23c0.41-6.14,0.23-12.42-0.76-18.68c-0.99-6.24-2.8-12.47-5.75-18.21
					c-1.95-3.54-4.31-7.09-7.34-10.29c-3.08-3.14-6.75-5.88-10.86-7.94c-4.14-2.01-8.7-3.23-13.32-3.71
					c-4.63-0.48-9.33-0.23-13.88,0.64c0.02,0.11-0.56,0.19-1.36,0.39c-0.8,0.19-1.83,0.4-2.77,0.6c-1.88,0.41-3.34,0.89-1.81,0.69
					c-8.42,1.92-17.08,5.52-24.24,9.23c-3.6,1.83-6.81,3.72-9.54,5.38c-2.72,1.65-4.92,3.13-6.39,4.28
					c-0.36,0.21-0.72,0.43-1.08,0.64c-1.06,0.59-2.54,1.49-4.09,2.5c-12.5,7.06-22.77,13.63-32.55,20.32
					c-9.78,6.69-19.08,13.48-29.54,21.22c-7.28,5.2-14.64,10.54-22.2,16.07c4.94-3.62,12.48-8.81,17.38-12.48
					c1.63-1.21,3.24-2.41,4.82-3.59c18.87-13.46,37.1-25.93,55.89-37.46c1.48-1.03,3.91-2.61,6.19-4.08
					c1.38-0.79,2.78-1.56,4.19-2.33c0.29-0.26,0.62-0.53,0.98-0.81c2.26-1.36,4.58-2.71,6.93-4.05c2.35-1.36,4.73-2.69,7.14-3.98
					c4.83-2.57,9.8-4.97,14.83-6.94c5.03-1.98,10.12-3.55,15.11-4.51c4.99-0.97,9.87-1.29,14.36-0.96
					c4.25,0.29,8.46,1.45,12.41,3.22l1.48,0.68c0.24,0.12,0.5,0.22,0.74,0.35l0.7,0.42l2.8,1.71c1.72,1.34,3.51,2.64,5.01,4.25
					l1.18,1.16l1.05,1.27l1.05,1.28l0.52,0.64l0.46,0.69l1.84,2.76l1.58,2.92c1.96,3.97,3.46,8.17,4.48,12.5
					c0.97,4.33,1.55,8.75,1.78,13.18c0.16,4.43,0.01,8.87-0.46,13.27c-1.12,8.77-3.21,17.34-5.94,25.58
					c2.54-8.26,4.36-16.67,5.25-25.1c0.76-8.43,0.37-16.91-1.5-24.95c2.27,10.1,2.21,20.39,0.68,30.16c-0.2,1.22-0.4,2.44-0.6,3.66
					c-0.23,1.21-0.5,2.41-0.74,3.62c-0.46,2.42-1.13,4.77-1.7,7.13c-1.31,4.69-2.74,9.3-4.44,13.78c-1.06,2.78-2.25,5.43-3.41,8.12
					c-2.53,5.6-5.32,11.06-8.29,16.44c2.83-4.98,5.53-9.99,7.9-15.12c-4.57,10.51-9.98,20.5-15.68,30.09
					c-16.16,26.22-34.81,51.41-54.68,75.66c-19.88,24.26-40.99,47.57-62.24,70.27c0.65-1.05,1.43-2.24,2.31-3.54
					c10.13-11.05,20.22-22.13,29.64-32.91c9.41-10.78,18.13-21.27,25.61-31c-11.14,13.24-18.77,22.46-29.87,34.93
					c-0.07-0.09-0.3-0.07,0.58-1.16c-6.94,8.12-15.21,17.46-23.38,26.42c2.28-3.17,4.84-6.73,7.39-10.28
					c3.85-4.79,10.03-11.58,16.01-18.57c13.13-14.91,25.66-29.57,37.71-44.51c12.04-14.95,23.63-30.18,34.58-46.35
					c9.99-14.22,19.51-28.77,27.19-44.17c3.82-7.69,7.23-15.58,9.86-23.68c2.64-8.08,4.58-16.4,5.6-24.71
					c-0.88,8.27-2.64,16.37-4.98,24.11c-2.34,7.76-5.27,15.21-8.55,22.38C1834.69,416.32,1826.74,429.56,1818.51,442.31z
					 M1666.48,779.64c-3.11,0.29-6.32,0.48-9.52,0.74c0.5,0.03,0.98,0.05,1.44,0.07C1661.34,780.33,1664.24,780.03,1666.48,779.64z
					 M1595.76,778.26c10.29,1.24,22.3,1.98,35.04,2.04c12.75,0.07,26.21-0.5,39.43-1.49c0.15-0.06,0.23-0.12,0.23-0.16
					c-11.1,0.62-23.47,1.17-36.22,1.22C1621.48,779.92,1608.35,779.45,1595.76,778.26z M1517.31,755.31
					c0.14,0.08,0.28,0.17,0.42,0.25c0-0.03-0.02-0.07-0.01-0.1C1517.59,755.41,1517.46,755.36,1517.31,755.31z M1555.21,474.11
					c-2.11,2.21-4.29,4.48-6.52,6.81c-2.21,2.36-4.47,4.78-6.78,7.25c-2.3,2.48-4.73,4.93-7.07,7.55c-2.37,2.59-4.78,5.23-7.22,7.91
					c-2.47,2.64-4.87,5.41-7.31,8.2c-2.44,2.78-4.9,5.6-7.37,8.42c-2.41,2.89-4.83,5.79-7.25,8.71c-1.21,1.46-2.42,2.92-3.64,4.38
					l-3.52,4.48c-1.43,1.78-2.82,3.58-4.23,5.44c-1.4,1.86-2.84,3.75-4.23,5.79c-2.82,4.06-5.93,8.37-9.55,13.25
					c-2.16,3.12-4.1,5.93-5.91,8.55c-1.8,2.62-3.46,5.05-4.99,7.44c-3.08,4.77-5.88,9.25-8.96,14.41c1.69-2.49,3.42-4.95,5.2-7.4
					c-5.87,8.76-9.85,15.98-13.42,23.3c-1.79,3.66-3.46,7.36-5.13,11.33c-1.68,3.97-3.36,8.22-5.02,13.03
					c0.1,0.03-0.01,0.76-0.21,1.84c-0.19,1.08-0.5,2.49-0.91,3.88c-1.79,6.94-3.08,14.01-3.63,20.76
					c-0.54,6.75-0.29,13.16,0.62,18.7l0.38,2.6l0.51,2.56c0.29,1.72,0.8,3.36,1.19,5.03c0.21,0.83,0.5,1.63,0.74,2.44
					c0.27,0.8,0.46,1.63,0.78,2.4c0.6,1.56,1.11,3.14,1.82,4.6c0.33,0.74,0.66,1.48,0.98,2.21c0.37,0.71,0.73,1.41,1.09,2.11
					c0.69,1.41,1.51,2.73,2.29,4.03c1.64,2.56,3.32,4.95,5.13,7.06c1.68,2.22,5.73,6.04,9.99,9.73c5.05,4.63,10.65,8.84,16.55,12.71
					c-0.23-0.22-0.44-0.43-0.63-0.61c-4.76-3.21-9.38-6.66-13.7-10.34c-6.46-5.45-12.66-12.1-17.22-19.63
					c-4.61-7.47-7.47-16.01-8.93-24.21c-1.75-10.28-1.57-20.85,0.03-31.1c1.58-10.25,4.69-20.23,8.72-29.85
					c4.03-9.62,8.94-18.89,14.38-27.9c2.72-4.51,5.55-8.96,8.46-13.38c2.91-4.42,5.99-8.74,8.98-13.12
					c2.52-3.78,5.22-7.45,7.85-11.17l3.97-5.56c1.31-1.86,2.74-3.64,4.11-5.45c2.08-2.71,4.22-5.5,6.39-8.33
					c2.2-2.81,4.54-5.58,6.83-8.39c4.56-5.66,9.42-11.14,14.02-16.46c2.28-2.68,4.62-5.21,6.85-7.7c2.22-2.49,4.37-4.9,6.41-7.19
					c4.13-4.54,7.84-8.63,10.79-12.14C1548.89,480.75,1553.31,476.54,1555.21,474.11z M1574.45,444.49
					c-23.67,22.25-48.7,48.15-68.9,71.24c-3.97,4.72-9.9,11.58-15.92,19.46c-1.52,1.96-3.08,3.96-4.65,5.97
					c-1.54,2.05-3.04,4.14-4.56,6.21c-3.01,4.17-6.07,8.25-8.71,12.29c-10.97,15.83-17.85,28.82-13.58,24.23
					c1.63-3.47,4.59-8.75,8.76-15.11c2.09-3.17,4.43-6.65,6.97-10.37c1.25-1.88,2.64-3.74,4.06-5.68c1.42-1.93,2.88-3.91,4.38-5.94
					c12.06-16.17,27.46-34.36,42.63-50.55c1.89-2.02,3.77-4.03,5.62-6.01c1.85-1.98,3.75-3.86,5.58-5.75
					c3.69-3.74,7.18-7.44,10.64-10.78c3.42-3.39,6.65-6.58,9.63-9.54c3.02-2.92,5.78-5.59,8.24-7.97
					c4.86-4.82,8.57-8.35,10.37-10.44C1576.83,443.68,1576.81,443.12,1574.45,444.49z M1782.99,293.65
					c-6.25,2.78-12.14,5.93-17.91,9.21c-5.78,3.23-11.68,6.67-18.07,10.36c5.77-3.45,11.55-6.87,17.43-10.14
					C1770.28,299.76,1776.51,296.47,1782.99,293.65z M1674.96,369.5c15.73-12.23,32.56-24.34,49.88-35.73
					c8.66-5.7,17.44-11.22,26.26-16.51c4.41-2.64,8.83-5.23,13.25-7.75c4.41-2.5,8.83-5.02,13.37-7.31
					c6.99-3.48,14.46-6.66,22.5-8.61c1.99-0.54,4.05-0.88,6.1-1.25c1.03-0.17,2.08-0.26,3.12-0.39l1.56-0.18l1.58-0.07
					c4.2-0.29,8.5,0.07,12.68,0.93c1.04,0.25,2.09,0.47,3.12,0.75c1.01,0.35,2.02,0.7,3.03,1.05c1.02,0.31,1.97,0.81,2.93,1.26
					l1.44,0.68l0.72,0.34l0.68,0.41c0.9,0.56,1.8,1.11,2.7,1.67c0.46,0.26,0.87,0.58,1.29,0.91l1.24,0.97
					c1.71,1.22,3.11,2.77,4.61,4.19c0.7,0.75,1.33,1.56,1.99,2.33l0.98,1.17c0.3,0.4,0.58,0.83,0.86,1.24
					c0.57,0.83,1.14,1.65,1.7,2.47c0.49,0.86,0.98,1.71,1.46,2.57l0.73,1.28l0.62,1.31c0.41,0.87,0.82,1.74,1.23,2.61
					c0.38,0.87,0.69,1.76,1.04,2.63c0.33,0.88,0.71,1.74,0.96,2.62l0.56-0.16c-0.31-1.05-0.8-2.06-1.2-3.08
					c-1.85-5.52-4.27-10.35-7.28-14.6c-2.98-4.27-6.75-7.8-11.04-10.65c0.51,0.3,1.05,0.62,1.56,0.92
					c-0.88-0.54-1.77-1.08-2.67-1.63l-1.1-0.7l-1.16-0.59c-0.78-0.38-1.57-0.77-2.36-1.15c-0.78-0.42-1.64-0.67-2.48-0.98
					c-0.85-0.3-1.71-0.59-2.57-0.9c-3.54-0.91-7.32-1.65-11.33-1.64c-3.68-0.11-7.34,0.34-10.94,0.89
					c-5.1,0.84-10.03,2.21-14.79,3.88c-4.76,1.67-9.36,3.66-13.8,5.84c-4.45,2.17-8.78,4.53-12.96,6.9
					c-2.11,1.17-4.2,2.37-6.28,3.58c-2.09,1.19-4.16,2.41-6.21,3.64c-16.45,9.76-32,20.08-46.09,30.28
					c-17.52,12.5-31.91,24.01-48.74,37.33c2.46-1.81,5.55-4.08,8.64-6.34C1669.43,373.64,1672.52,371.37,1674.96,369.5z"/>
				<path class="st0" d="M1846.73,393.37c-4.89,12.35-11.24,24.19-18.22,35.73c-2.65,4.48-5.42,8.87-8.19,13.24
					c-2.85,4.32-5.61,8.69-8.52,12.95c-13.86,20.4-30.33,41.51-47.94,62.2c-17.57,20.73-36.19,41.12-53.98,60.65
					c-0.64,1.53-0.34,2.07,1.41,1.08c39.48-41.64,77.33-85.3,110.18-132.83c0.24-0.38,0.48-0.77,0.72-1.15
					c6.45-10.54,15.2-24.29,22.62-39.76c3.72-7.72,7.06-15.88,9.58-24.13c2.54-8.25,4.26-16.51,5.03-24.38
					c0.11-0.98,0.14-1.98,0.19-2.96c0.04-0.99,0.11-1.97,0.12-2.96c-0.02-1.98,0.05-3.95-0.1-5.92c-0.12-3.95-0.69-7.87-1.36-11.75
					l-0.65-2.89c-0.11-0.48-0.21-0.96-0.33-1.44l-0.42-1.42c-0.28-0.95-0.54-1.9-0.84-2.84l-1.03-2.79
					c-0.32-0.94-0.74-1.84-1.16-2.74c-0.43-0.89-0.8-1.81-1.27-2.68c-0.99-1.73-1.9-3.49-3.09-5.09c-4.41-6.62-11-11.74-18.35-14.52
					c-3.71-1.34-7.58-2.1-11.47-2.39c-3.89-0.15-7.78,0.01-11.57,0.69c5.51-0.75,11.14-0.74,16.55,0.41
					c5.41,1.14,10.55,3.45,14.94,6.76c4.4,3.31,7.97,7.6,10.65,12.35c2.69,4.75,4.53,9.92,5.73,15.21
					c1.21,5.29,1.74,10.71,1.76,16.12c0.02,5.41-0.48,10.83-1.47,16.15C1854.38,372.92,1851.02,383.32,1846.73,393.37z"/>
				<path class="st0" d="M1622.25,422.25c2.29-1.9,4.59-3.8,6.88-5.7c2.3-1.9,4.65-3.75,6.98-5.64c2.33-1.88,4.67-3.76,7.02-5.64
					c2.37-1.86,4.74-3.71,7.12-5.58c26.43-20.78,50.38-38.67,75.58-55.78c-18.74,12.19-37.14,25.17-55.44,38.64
					C1652.18,396.23,1637.56,408.82,1622.25,422.25z"/>
				<path class="st0" d="M1746.47,330.36c-7.05,4.47-13.88,8.98-20.65,13.56c13.88-9.04,27.97-17.63,42.29-25.67
					c3.6-1.99,7.19-4.01,10.73-5.83c3.56-1.86,7.16-3.52,10.79-5.07c3.63-1.52,7.3-2.81,10.99-3.89c3.69-1,7.4-1.75,11.07-2.12
					c6.02-0.57,11.94,0.02,17.31,2.09c5.34,2.17,9.98,5.74,13.58,10.42c3.52,4.75,6.01,10.46,7.57,16.51
					c1.56,6.06,2.13,12.48,2.03,18.88c-0.03,3.21-0.34,6.41-0.74,9.59l-0.79,4.84c-0.27,1.62-0.66,3.21-0.98,4.82
					c-1.43,6.41-3.35,12.74-5.64,18.96c-4.58,12.45-10.7,24.41-17.51,36c-3.11,5.26-6.34,10.42-9.67,15.48
					c7.05-10.41,13.73-21.03,19.49-32.06c5.73-11.03,10.61-22.46,13.76-34.29l0.6-2.21c0.19-0.74,0.34-1.49,0.52-2.23
					c0.32-1.49,0.72-2.97,0.97-4.47l0.81-4.49c0.18-1.49,0.42-2.97,0.57-4.46c0.59-5.97,0.55-11.98-0.2-17.85
					c-0.76-5.86-2.24-11.59-4.62-16.83l-0.43-0.99l-0.51-0.94l-1.01-1.88c-0.69-1.24-1.54-2.37-2.3-3.57
					c-0.88-1.09-1.75-2.2-2.67-3.24l-1.48-1.46c-0.49-0.49-0.97-1-1.53-1.4c-4.23-3.56-9.33-5.99-14.7-7.13
					c-5.38-1.15-11.03-1.09-16.56-0.16c-5.54,0.93-10.99,2.61-16.27,4.69c-5.28,2.08-10.4,4.57-15.4,7.26
					c-20.1,10.99-38.96,22.99-56.46,35.19c-1.28,0.9-2.71,1.9-4.07,2.85c16.89-11.28,34.03-21.97,51.56-31.8l6.59-3.65
					c2.19-1.18,4.36-2.34,6.56-3.44c4.39-2.2,8.85-4.2,13.36-5.88c4.51-1.69,9.1-3.03,13.71-3.81c4.6-0.79,9.21-1.03,13.66-0.48
					c-6.25-0.78-12.8,0.14-19.18,1.86c-6.41,1.71-12.69,4.36-18.83,7.36c-3.08,1.5-6.1,3.13-9.13,4.82
					c-3.05,1.74-6.11,3.44-9.13,5.22C1758.41,322.99,1752.43,326.65,1746.47,330.36z"/>
				<path class="st0" d="M1851.04,381.27c-0.98,2.8-1.93,5.58-3.05,8.3c-0.59,1.61-1.19,3.2-1.84,4.76
					c-0.64,1.57-1.25,3.14-1.95,4.67c0.92-1.85,1.7-3.77,2.54-5.64c0.82-1.99,1.52-4.02,2.28-6.02
					C1849.71,385.32,1850.39,383.3,1851.04,381.27z"/>
				<path class="st0" d="M1839.62,296.58c-0.36-0.23-0.73-0.47-1.11-0.71c-4.8-2.76-10.18-4.57-15.66-5.33
					c-5.48-0.78-10.99-0.57-16.29,0.26c-14.59,2.67-28,9.41-40.78,16.72c11.63-6.53,23.96-12.62,36.89-15.51
					c6.45-1.42,13.08-1.99,19.47-1.24C1828.54,291.47,1834.57,293.56,1839.62,296.58z"/>
				<path class="st0" d="M1752.65,308.11c-2.7,1.55-8.07,4.64-10.75,6.25c-1.57,1.06-3.12,2.11-4.67,3.2
					c2.48-1.51,5.03-2.97,7.56-4.45C1747.39,311.42,1750.03,309.78,1752.65,308.11z"/>
				<path class="st0" d="M1605.65,415.62c20.8-17.72,41.61-34.06,62.32-49.7c20.77-15.59,41.62-30.38,63.15-44.11
					c2.04-1.42,4.08-2.83,6.12-4.25c-29.44,17.61-57.17,37.37-81.54,56.88c-2.41,1.92-5.38,4.37-8.36,6.82
					c-2.96,2.48-5.93,4.94-8.37,6.81c-23.04,17.89-44.1,36.09-64.33,55.04c9.72-9.02,19.78-17.83,30.15-26.75
					C1605.08,416.11,1605.36,415.87,1605.65,415.62z"/>
			</g>
		</g>
	</g>
</g>
<text transform="matrix(1 0 0 1 61.9305 676.0796)" class="st0 st1 st2 st3">CLOUD</text>
</svg>
