<svg id="Layer_1" data-name="Layer 1" xmlns="http://www.w3.org/2000/svg" viewBox="0 0 517.21 588.86"><defs><style>.cls-1{fill:#fff;}</style></defs><title>cloud-white</title><g id="xSLOxl.tif"><path class="cls-1" d="M697,459h5a12.27,12.27,0,0,0,2.27.74c34.28,3.86,57,26,61.57,60.37.36,2.64,1.32,3.46,3.88,4a60.5,60.5,0,0,1,30.62,16.78c7.46,7.41,12.34,16.36,15.79,26.3,28.37-5.68,49.38,4.23,63.56,29.17,1.37-.89,2.61-1.69,3.85-2.51,14.37-9.46,31.45-9.1,45.3.9,7.75,5.6,12,13.56,15.16,22.24-.17.67-.23,1.85-.52,1.91A18.22,18.22,0,0,1,940,619H512v-5c.34-1.07.76-2.13,1-3.23,4-17.63,14.15-30.21,31-37,11.89-4.78,24-4.32,36.27-.11a13,13,0,0,0,.49-2.07c1.32-26.76,23.36-47.76,48.49-48.75,3.36-.13,3.41-2.13,3.78-4.59,4-26.88,18.77-45.36,44.2-54.85C683.49,461.07,690.39,460.43,697,459Z" transform="translate(-476.17 -161)"/></g><path class="cls-1" d="M859.35,729.74l6.42-1c0-.06-.09-.11-.14-.17Z" transform="translate(-476.17 -161)"/><path class="cls-1" d="M853.41,733l2-.29a1.27,1.27,0,0,1-.41-.1Z" transform="translate(-476.17 -161)"/><path class="cls-1" d="M865.63,728.61c-.59-.63-3.36-1-.21-2.14l14.2-2.12c3.5-.93-.11-.78-.17-1.16,3.55-.54,7.1-1.07,7.07-1.27,2.24-.86-1.65-.61-8.55.3C863,726.74,824.22,733.07,865.63,728.61Z" transform="translate(-476.17 -161)"/><path class="cls-1" d="M837.53,734.21c6.23-.84,12.46-1.74,18.69-2.63,1.88-.73,4.45-1.56,2.49-1.73C849.09,731.59,843.24,732.8,837.53,734.21Z" transform="translate(-476.17 -161)"/><path class="cls-1" d="M821,480.78c.08.09-.09.37-2.41,2.64l2.41-2.64c-.05-.11-.31-.07.73-1.31-8.27,9.38-18.08,20.24-27.71,30.69l-3.12,4.28c11.94-12.91,23.88-25.81,35.08-38.29s21.66-24.57,30.72-35.73C843.27,455.71,834.14,466.3,821,480.78Z" transform="translate(-476.17 -161)"/><path class="cls-1" d="M789.84,517.25l-2.43,2.62C789.74,517.64,789.91,517.35,789.84,517.25Z" transform="translate(-476.17 -161)"/><path class="cls-1" d="M770.61,265.11c-8.72,6.4-16.71,12.68-24.44,18.78-3.85,3.07-7.59,6.16-11.32,9.2l-5.57,4.57-5.49,4.63c31.66-25.56,65.46-50.22,90.91-68Q792.46,249.19,770.61,265.11Z" transform="translate(-476.17 -161)"/><path class="cls-1" d="M652.78,365.66c19.89-17.73,36.38-32.25,52.22-46.06-16.44,13.65-32.52,27.51-48,41.85Z" transform="translate(-476.17 -161)"/><path class="cls-1" d="M674.06,345.07c18.44-16,34-29.62,49.73-42.78-4.46,3.65-8.95,7.19-13.27,10.85l-12.82,10.8C689.41,331.19,681.38,338.19,674.06,345.07Z" transform="translate(-476.17 -161)"/><path class="cls-1" d="M965.38,315.79c-3.79,7.44-7.12,13.22-9.8,17.78s-4.79,7.87-6.32,10.26c-1.17,2.23-2.71,5.22-4.93,9.13l1.66-2.41a404.82,404.82,0,0,0,26-45.26c1.55-3.29,2.9-6.61,4.2-9.74s2.39-6.16,3.28-9A256.91,256.91,0,0,1,965.38,315.79Z" transform="translate(-476.17 -161)"/><path class="cls-1" d="M949.26,343.83c4.89-9.63,1.91-4.94-.8-.2S943.21,353.1,949.26,343.83Z" transform="translate(-476.17 -161)"/><path class="cls-1" d="M979.26,242.48c.08-.8.16-1.62.23-2.42.14-2.34.24-4.74.21-7.06C979.7,236.23,979.56,239.3,979.26,242.48Z" transform="translate(-476.17 -161)"/><path class="cls-1" d="M838.14,208.47c12.1-7.54,24.39-14.83,36.64-21.73a766.66,766.66,0,0,0-69.7,43.71c3-2,6.11-3.84,9.12-5.82C820,220.36,828.87,214.15,838.14,208.47Z" transform="translate(-476.17 -161)"/><path class="cls-1" d="M936.32,344.33c10.79-16.28,20.75-33,28.5-50.39a196.13,196.13,0,0,0,9.7-26.61,137.75,137.75,0,0,0,5-27.27,91,91,0,0,0-1.75-27.44c-2-8.86-5.72-17.35-11.46-24.11a41.15,41.15,0,0,0-9.93-8.56,60.16,60.16,0,0,0-5.84-2.94c-1-.4-2-.71-3.07-1.07-.52-.17-1-.37-1.55-.52l-1.59-.36c-8.46-2.09-17.37-1.38-25.83.48a121,121,0,0,0-24.45,8.9c-3.92,1.84-7.73,3.89-11.5,5.94s-7.54,4.21-11.23,6.38c-14.83,8.58-29,17.54-42.48,26.62-11.86,8-25.86,17.7-40.75,28.44-7.45,5.36-15.11,11-22.87,16.81-3.89,2.89-7.76,5.87-11.66,8.84s-7.85,5.94-11.7,9c-15.58,12.08-30.78,24.6-44.71,36.53s-26.35,23.52-36.4,33.7l6.77-6,6.57-5.67c-6.19,5.65-11.83,11.2-17,16.38-34.58,31.92-66.91,65.61-95.88,102.22-1.81,2.29-3.66,4.55-5.45,6.85l-5.28,7-5.29,7c-1.79,2.31-3.41,4.74-5.13,7.11l-5.1,7.15-2.55,3.57L529.86,506c-3.29,4.83-6.5,9.69-9.58,14.6a260,260,0,0,0-16.51,30.3A156.83,156.83,0,0,0,493,583,104.29,104.29,0,0,0,490.78,601a124.27,124.27,0,0,0,.65,17.94,82.46,82.46,0,0,0,12.18,35.78c.06,0,0-.14-.14-.45a90.76,90.76,0,0,0,12.32,15.38c2.31,2.4,4.84,4.65,7.38,6.88s5.25,4.32,8,6.34a175.28,175.28,0,0,0,17.52,11.36q9.15,5.31,18.78,9.86c25.66,12.13,53.59,20.19,82.88,24.84A463.6,463.6,0,0,0,734,734.68a97.91,97.91,0,0,1,10.14.14c2.21.12,4,.29,7.52.23,14.14-.2,26.55-.76,39.42-1.65s26.17-2.17,42.14-4.13l.07.58c4.89-.73,9.28-1.31,12.88-1.77-3.74,1.09-9,2.26-14.06,3.37s-10,2.08-13.26,2.8-4.64,1.21-2.7,1.29,7.29-.22,17.65-1.22h0l-6.29,1-.69.09,0,0c-4.83.8-8.7,1.45-12.08,2.08s-6.28,1.22-9.16,1.86c3.12-.34,6.23-.7,9.35-1.09l9.38-1.17c-1.15.43-1.88.8-1.2,1l-1.63.37-5.1.62a15.64,15.64,0,0,0-2,.69c-8.13,1.43-18.65,2.87-26.52,3.94s-13.08,1.78-10.55,2c1.93,0,5.89-.3,11.08-.83s11.57-1.37,18.36-2.29c.83,0,1.78-.05,2.75-.11-17.86,2.2.16,1.37-10.55,2.75-14.33,1.52-28.67,2.94-43.09,3.7-29.33,1.55-56.52,1.19-83.39-1.56s-53.48-7.8-81-17.09c-2.46-.76-4.82-1.7-7.22-2.57a270.58,270.58,0,0,1-37.72-17.17c-3-1.71-5.93-3.38-8.87-5.13s-5.8-3.62-8.63-5.56a160,160,0,0,1-16.44-12.7c1.42,1.1,3,2.17,4.49,3.3A123.35,123.35,0,0,1,494,665.92a95.86,95.86,0,0,1-14.18-30.85,117.32,117.32,0,0,1-3-41.44,152.28,152.28,0,0,1,10-40.61,242.23,242.23,0,0,1,19-37.74c3.67-6.07,7.54-12,11.55-17.95,2-3,4.07-5.88,6.15-8.81l6.27-8.82a803.92,803.92,0,0,1,57-69.58c20.15-22.06,41.43-43.23,64.09-64-18.41,17.13-36.27,34.81-54,53.54L585,412.23c-3.87,4.23-7.62,8.51-11.35,12.69,3.91-4.3,7.72-8.62,11.58-12.83l11.62-12.47c15.45-16.06,31.71-31.72,47.29-46.24s30.55-27.77,43.15-39.46c3-2.26,3.11-2.08,5.89-4.36,19.58-16,39.71-31.3,56.67-44.77a9,9,0,0,1,1.25-1.07l2.61-2.08c1.78-1.39,3.19-2.54,1.61-1.63,17.34-13,38.06-27.57,56-39.79,7.81-5.26,15.5-10.65,23.29-16Q847,196.42,859.54,189c4.22-2.45,8.42-4.91,12.69-7.29s8.65-4.81,13.15-7.08a141,141,0,0,1,29.19-11.17,79.57,79.57,0,0,1,16.5-2.38,39.25,39.25,0,0,1,4.34,0,38.28,38.28,0,0,1,4.38.27c1.47.18,3,.33,4.42.57l4.42,1c.36.09.73.16,1.1.27l1.08.35,2.17.73,2.16.74,2.09.95a48.3,48.3,0,0,1,8.1,4.42A55.41,55.41,0,0,1,978.64,183a66.23,66.23,0,0,1,4.89,7.6,74.93,74.93,0,0,1,3.75,8,86.14,86.14,0,0,1,2.75,8.27c.76,2.78,1.36,5.58,1.86,8.39a108.64,108.64,0,0,1,.31,33.91,178.64,178.64,0,0,1-8,32.14c-7.18,20.88-19.53,42.67-31.26,60.52A346.32,346.32,0,0,0,976,299.28c6.71-15.14,12.18-31.39,14.78-48.51a107.08,107.08,0,0,0,1.52-25.49,88,88,0,0,0-4.92-24.71,62.79,62.79,0,0,0-12.79-21.5,51.76,51.76,0,0,0-9.36-8c-.85-.54-1.69-1.09-2.54-1.58s-1.73-1-2.6-1.41c-1.78-.8-3.54-1.58-5.27-2.31a57.84,57.84,0,0,0-20.25-3.58c1.28,0,2.55.06,3.82.14l3.85.46a30,30,0,0,1,3.83.71c1.27.31,2.57.51,3.82.93a53,53,0,0,1,7.38,2.8,44.91,44.91,0,0,1,7,3.81A54,54,0,0,1,976,181.63a62.4,62.4,0,0,1,8.19,13,75.37,75.37,0,0,1,5,13.92,92.1,92.1,0,0,1,2.49,14.17,110.35,110.35,0,0,1-.89,28.08,172.93,172.93,0,0,1-7.67,28.69,235.83,235.83,0,0,1-11.65,26.88l.48-1a208.32,208.32,0,0,0,15.56-43.43l1.25-5.38c.37-1.8.68-3.61,1-5.41s.64-3.65.87-5.51.43-3.71.57-5.56a102.93,102.93,0,0,0-.63-21.95,80.36,80.36,0,0,0-5.67-20.73,59.43,59.43,0,0,0-11.44-17.6,48.67,48.67,0,0,0-7.71-6.6,46.21,46.21,0,0,0-9-5l-2.35-1-2.44-.8-2.44-.78c-.81-.28-1.65-.38-2.48-.58.77.19,1.56.31,2.31.57l2.27.75,2.26.77c.76.25,1.47.64,2.2,1l2.17,1a21.43,21.43,0,0,1,2.14,1.08c1.41.77,2.76,1.64,4.1,2.53A53.43,53.43,0,0,1,977.91,186a66,66,0,0,1,8.27,16.37,86.49,86.49,0,0,1,4,17.24,106.76,106.76,0,0,1,.59,21.5c-.13,1.78-.31,3.56-.51,5.33l-.36,2.66-.43,2.56c-.3,1.71-.54,3.43-.89,5.12l-1.08,5.07a186.88,186.88,0,0,1-8.08,24.72c.28-.87.59-1.79.85-2.57.67-1.77,1.36-4.45,2.1-7.23s1.24-5.77,1.61-8.16c.62-4.84.55-7.34-1.2-2a199.78,199.78,0,0,1-7.24,21.15c-2.9,7.08-6.2,14.14-9.75,21a416,416,0,0,1-22.49,37.64q-2.8,4.13-5.39,8c-1.74,2.55-3.36,5-5,7.27-3.23,4.54-6,8.61-8.47,11.91l-5.7,7.77c-.67.9-1.18,1.6-1.55,2.06l-.41.53a1.07,1.07,0,0,1-.15.17c-1.41,1.19,12.23-17.34,24.81-36.6,6.32-9.61,12.35-19.49,16.49-26.87,1-1.84,2-3.52,2.76-5l2-3.76a19.14,19.14,0,0,0,1.28-2.65c-2.6,4.75-5.37,9.4-8.15,14,2.47-4.49,4.81-8.91,6.82-13.07,2.53-4.85,5.37-10.59,7.82-16,1.2-2.73,2.32-5.37,3.27-7.77s1.72-4.57,2.24-6.34c2-6.13,3.72-12.55,5.27-19.21q.51-2.5,1-5c.37-1.69.6-3.42.9-5.14A93.5,93.5,0,0,0,984.51,240a97.5,97.5,0,0,0-.85-21.81A71.38,71.38,0,0,0,977,196.94a61.6,61.6,0,0,0-3.74-6.18,51.74,51.74,0,0,0-4.75-5.85,49.51,49.51,0,0,0-5.8-5.17,46.43,46.43,0,0,0-6.8-4.15,47,47,0,0,0-15.53-4.43,56.46,56.46,0,0,0-16.26.65c0,.11-.66.2-1.59.42s-2.16.46-3.26.69c-2.21.47-3.92,1-2.13.76a125.87,125.87,0,0,0-28.48,10.82c-4.23,2.13-8,4.34-11.22,6.26s-5.81,3.61-7.56,4.93l-1.27.75c-1.24.69-3,1.74-4.82,2.9-14.66,8.3-26.74,16-38.26,23.79s-22.48,15.72-34.79,24.75c-8.56,6.09-17.21,12.36-26.09,18.84,5.8-4.24,14.64-10.36,20.41-14.65l5.68-4.19c22.18-15.77,43.64-30.34,65.75-43.81,1.75-1.19,4.62-3,7.3-4.73,1.63-.93,3.26-1.83,4.92-2.73.35-.29.74-.6,1.17-.92,2.66-1.59,5.39-3.16,8.16-4.72s5.56-3.14,8.39-4.66a167.76,167.76,0,0,1,17.45-8.1A100.63,100.63,0,0,1,921.65,173a64.54,64.54,0,0,1,16.87-1.06,43.24,43.24,0,0,1,14.54,3.81,39.83,39.83,0,0,1,6.69,3.72,45.62,45.62,0,0,1,5.89,5,48.65,48.65,0,0,1,9,12.6,65.51,65.51,0,0,1,5.23,14.66,92.41,92.41,0,0,1,1.57,31,159.84,159.84,0,0,1-6.95,30,158.12,158.12,0,0,0,6.26-29.44,93.34,93.34,0,0,0-1.65-29.32,88.51,88.51,0,0,1,2,17.88,97.52,97.52,0,0,1-1.32,17.56l-.72,4.3c-.26,1.42-.59,2.83-.88,4.24-.54,2.83-1.34,5.59-2,8.36-1.55,5.5-3.24,10.92-5.25,16.17-1.24,3.26-2.64,6.37-4,9.53-3,6.57-6.24,13-9.72,19.29,3.31-5.85,6.46-11.74,9.24-17.76a312.18,312.18,0,0,1-18.5,35.24c-19,30.72-41,60.23-64.3,88.67s-48.14,55.8-73.05,82.46c.79-1.21,1.73-2.57,2.8-4.07,11.9-13,23.74-26,34.82-38.6s21.32-24.92,30.18-36.28c-13.08,15.55-22.08,26.33-35.12,41-.07-.09-.31-.05.72-1.32C835.78,470,826,481,816.45,491.49l8.87-11.89c4.58-5.58,11.83-13.55,18.87-21.72,15.43-17.48,30.15-34.69,44.32-52.23s27.77-35.41,40.66-54.37c11.72-16.7,22.9-33.8,31.92-51.9a202.41,202.41,0,0,0,11.58-27.84,154.92,154.92,0,0,0,6.59-29.06,155.34,155.34,0,0,1-5.93,28.34,205.29,205.29,0,0,1-10.12,26.26C955.41,313.89,946,329.4,936.32,344.33ZM757.93,741.16c-3.65.33-7.43.54-11.2.83l1.7.06A90.47,90.47,0,0,0,757.93,741.16Zm-83.16-1.59A374.51,374.51,0,0,0,716,742c15,.11,30.82-.53,46.36-1.67.17-.06.28-.12.27-.17-13,.75-27.58,1.38-42.58,1.41S689.58,741,674.77,739.57Zm-92.59-26.35.5.29s0-.08,0-.11Zm44.73-332q-3.75,3.86-7.7,8l-8,8.48-4.14,4.37q-2.12,2.19-4.19,4.48-4.18,4.57-8.5,9.27c-2.9,3.1-5.73,6.35-8.6,9.62l-8.67,9.89-8.54,10.21-4.28,5.14L560.14,456c-1.68,2.08-3.32,4.2-5,6.37s-3.36,4.39-5,6.78c-3.34,4.75-7,9.79-11.27,15.53l-7,10c-2.13,3.07-4.09,5.92-5.9,8.72-3.65,5.59-7,10.85-10.6,16.92q3-4.42,6.06-8.75A230.48,230.48,0,0,0,505.59,539c-1.09,2.15-2.06,4.33-3.11,6.53s-2,4.47-3,6.83c-2,4.68-4,9.71-5.93,15.4a7.08,7.08,0,0,1-.31,2.15c-.25,1.27-.64,2.94-1.12,4.58a144.89,144.89,0,0,0-4.31,24.62,95.65,95.65,0,0,0,.71,22.22l.44,3.09.6,3.05c.35,2,.95,4,1.41,6,.25,1,.58,1.94.87,2.91s.55,1.94.92,2.87c.72,1.86,1.33,3.74,2.16,5.5.4.88.78,1.77,1.17,2.64l1.3,2.53c.82,1.69,1.8,3.26,2.72,4.82a78,78,0,0,0,6.09,8.45c2,2.64,6.74,7.27,11.78,11.68A152.7,152.7,0,0,0,537.62,690l-.77-.7A176.3,176.3,0,0,1,520.62,677a97.34,97.34,0,0,1-20.46-23.49,77.81,77.81,0,0,1-6.71-14.18,93.09,93.09,0,0,1-3.88-14.77,114.93,114.93,0,0,1,.1-37,151.38,151.38,0,0,1,10.41-35.33,252.21,252.21,0,0,1,17.05-32.87c3.21-5.3,6.56-10.53,10-15.72,1.71-2.6,3.5-5.16,5.28-7.72l5.33-7.68c3-4.43,6.17-8.73,9.28-13.08l4.69-6.52c1.55-2.18,3.24-4.26,4.86-6.38l7.54-9.77c2.59-3.29,5.35-6.54,8.06-9.84s5.4-6.64,8.24-9.81l8.28-9.49c2.68-3.15,5.44-6.12,8.06-9l7.56-8.41c4.87-5.31,9.27-10.08,12.78-14.16C619.44,389,624.62,384.08,626.91,381.27Zm23.58-33.68c-27.86,26-57.26,56.32-80.93,83.41-4.66,5.54-11.62,13.57-18.71,22.8l-5.47,7c-1.81,2.39-3.58,4.85-5.37,7.27-3.54,4.88-7.15,9.65-10.26,14.37-13,18.5-21.14,33.66-16.31,28.17A170.36,170.36,0,0,1,523.9,493c2.47-3.7,5.24-7.77,8.23-12.13,1.47-2.19,3.12-4.37,4.78-6.64l5.15-7c3.47-4.79,7.35-9.6,11.3-14.57,2-2.48,4-5,6-7.53l6.34-7.51,6.41-7.59,6.64-7.45q3.32-3.72,6.61-7.42l6.72-7.19L598.7,401c2.17-2.32,4.41-4.53,6.55-6.74,4.34-4.39,8.42-8.73,12.49-12.65l11.31-11.17c3.54-3.42,6.8-6.55,9.69-9.33,5.71-5.64,10.09-9.75,12.25-12.16S653.2,345.9,650.49,347.59ZM895.24,171.28c-7.27,3.21-14.14,6.86-20.91,10.68s-13.7,7.78-21.19,12.11c6.77-4,13.55-8,20.44-11.84A232,232,0,0,1,895.24,171.28ZM767.94,259c18.53-14.26,38.31-28.41,58.67-41.73,10.17-6.66,20.49-13.12,30.85-19.3q7.77-4.64,15.55-9.06c5.19-2.92,10.37-5.86,15.69-8.53a126.41,126.41,0,0,1,26.31-10c2.32-.63,4.72-1,7.1-1.46,1.2-.2,2.42-.3,3.63-.46l1.82-.2,1.84-.09a54.84,54.84,0,0,1,14.72,1.08,49.13,49.13,0,0,1,13.82,5.18,47.4,47.4,0,0,1,6.07,4.09,52.46,52.46,0,0,1,5.29,4.9,63.67,63.67,0,0,1,13.34,23.52l.56-.16c-.39-1.22-.88-2.41-1.33-3.6a63.3,63.3,0,0,0-8.49-16.88A48.46,48.46,0,0,0,960.64,174l1.76,1.11c-1-.64-2-1.32-3-1.9l-1.29-.77-1.34-.67L954,170.45a23,23,0,0,0-2.86-1.13l-3-1a52.49,52.49,0,0,0-13.06-1.92,70.73,70.73,0,0,0-12.68,1,101.16,101.16,0,0,0-17.21,4.48,145.64,145.64,0,0,0-16.13,6.8c-5.2,2.52-10.27,5.28-15.19,8.05-2.47,1.36-4.93,2.77-7.37,4.18s-4.88,2.81-7.28,4.25c-19.31,11.4-37.59,23.45-54.18,35.33-10.32,7.28-19.71,14.29-29,21.39S757.56,266.16,747.66,274l10.14-7.45C761.44,263.86,765.07,261.19,767.94,259Z" transform="translate(-476.17 -161)"/><path class="cls-1" d="M969.37,286.86c-5.78,14.47-13.26,28.34-21.47,41.86-3.13,5.24-6.4,10.38-9.67,15.49l-5,7.6c-1.66,2.53-3.32,5.07-5.05,7.56-8.12,12-17.11,24.08-26.55,36.3s-19.47,24.45-29.8,36.6c-20.62,24.31-42.48,48.23-63.39,71.13-.82,1.73-.54,2.29,1.43,1.06,46.25-48.94,90.79-100,129.25-155.8l.85-1.34c7.65-12.3,17.93-28.4,26.65-46.5a201.35,201.35,0,0,0,11.25-28.22,149.45,149.45,0,0,0,6-28.49,101.14,101.14,0,0,0-1.23-27.58A68,68,0,0,0,972.5,190.9a47.47,47.47,0,0,0-9.41-10.19c-.88-.75-1.86-1.39-2.79-2.07s-1.93-1.28-2.95-1.82c-.51-.27-1-.57-1.52-.83l-1.58-.71c-1.06-.46-2.08-1-3.16-1.38a48.34,48.34,0,0,0-6.62-1.88,52,52,0,0,0-6.78-1c-1.14-.06-2.28-.05-3.42-.08l-1.7,0-1.7.12c-1.13.09-2.26.12-3.39.26l-3.36.48a56.46,56.46,0,0,1,19.41.49,34.38,34.38,0,0,1,4.68,1.26,31.75,31.75,0,0,1,4.52,1.75,40.33,40.33,0,0,1,8.32,4.88,46.72,46.72,0,0,1,12.46,14.49,65.45,65.45,0,0,1,6.68,17.83,87.82,87.82,0,0,1,2.06,18.9,97.8,97.8,0,0,1-1.73,18.94A167.8,167.8,0,0,1,969.37,286.86Z" transform="translate(-476.17 -161)"/><path class="cls-1" d="M705,319.6l8.1-6.69c2.71-2.23,5.47-4.4,8.21-6.61l8.25-6.61,8.37-6.54c15.52-12.2,30.39-23.48,45-34.27s29.09-21,43.95-31c-22,14.31-43.66,29.55-65.16,45.37C740.36,289.26,723.08,303.92,705,319.6Z" transform="translate(-476.17 -161)"/><path class="cls-1" d="M851.23,212c-8.31,5.22-16.35,10.5-24.32,15.85q24.48-15.93,49.73-30.13c4.23-2.33,8.45-4.7,12.64-6.85s8.46-4.14,12.75-6a124.44,124.44,0,0,1,13-4.59,82.79,82.79,0,0,1,13.19-2.51A45.79,45.79,0,0,1,949,180.4l2.35,1.09,1.19.54c.39.19.75.42,1.13.63a38.56,38.56,0,0,1,4.33,2.86,40.81,40.81,0,0,1,7.32,7.47,50.3,50.3,0,0,1,5.42,9.29,64.24,64.24,0,0,1,3.58,10.44,85,85,0,0,1,2.36,22.4,100.36,100.36,0,0,1-.92,11.35l-.95,5.72c-.33,1.9-.79,3.79-1.17,5.68A175.2,175.2,0,0,1,967,280.21a226.42,226.42,0,0,1-9.38,21.55c-3.5,7-7.32,13.95-11.34,20.76q-5.5,9.27-11.41,18.17A387.43,387.43,0,0,0,957.73,303a199.46,199.46,0,0,0,16.19-40.36l.71-2.61c.22-.87.4-1.75.61-2.62.37-1.76.85-3.5,1.14-5.27l1-5.28c.27-1.76.5-3.51.68-5.27a94,94,0,0,0-.22-21.08,68.56,68.56,0,0,0-5.46-19.92,45.19,45.19,0,0,0-11.81-16,35.81,35.81,0,0,0-8.26-5.31L950,178.2c-.75-.32-1.54-.54-2.31-.82s-1.54-.56-2.33-.77l-2.39-.54a52.6,52.6,0,0,0-19.66-.22,96.12,96.12,0,0,0-19.23,5.51A170.46,170.46,0,0,0,886,189.87,736,736,0,0,0,819.5,231l-4.8,3.33c19.85-13.25,40-25.79,60.61-37.32l7.75-4.28c2.57-1.39,5.14-2.75,7.73-4a161.36,161.36,0,0,1,15.78-6.92,89.19,89.19,0,0,1,16.24-4.49,55.45,55.45,0,0,1,16.28-.55,50.92,50.92,0,0,0-11.38-.05c-1.92.27-3.84.44-5.75.88-1,.19-1.91.36-2.86.58l-2.85.74A123.3,123.3,0,0,0,894,187.53c-3.64,1.75-7.21,3.67-10.78,5.65s-7.2,4-10.75,6.11C865.29,203.4,858.24,207.68,851.23,212Z" transform="translate(-476.17 -161)"/><path class="cls-1" d="M974.46,272.67c-1.16,3.3-2.26,6.56-3.57,9.75-.7,1.89-1.4,3.75-2.18,5.58s-1.48,3.68-2.31,5.48c1.08-2.18,2-4.43,3-6.62,1-2.34,1.8-4.72,2.7-7.06S973.7,275.05,974.46,272.67Z" transform="translate(-476.17 -161)"/><path class="cls-1" d="M960.64,174c-.4-.28-.85-.52-1.28-.79a51.57,51.57,0,0,0-18.07-6.14,63.62,63.62,0,0,0-18.85.28A112.81,112.81,0,0,0,897.87,175a235.09,235.09,0,0,0-23.09,11.75c13.65-7.64,28.07-14.73,43.12-18.06a68.78,68.78,0,0,1,22.58-1.4c.92.12,1.84.19,2.75.36l2.7.57a26.89,26.89,0,0,1,2.65.64l2.57.83a37,37,0,0,1,4.91,2c.78.38,1.6.68,2.35,1.11S959.92,173.57,960.64,174Z" transform="translate(-476.17 -161)"/><path class="cls-1" d="M859.89,188.32c-3.16,1.82-9.45,5.44-12.59,7.32-1.85,1.23-3.67,2.44-5.5,3.7,2.91-1.77,5.89-3.48,8.85-5.22C853.71,192.16,856.81,190.26,859.89,188.32Z" transform="translate(-476.17 -161)"/><path class="cls-1" d="M687.24,313.92c24.43-20.73,48.88-39.84,73.21-58.13s48.89-35.52,74.14-51.54c2.39-1.66,4.82-3.27,7.21-4.91a902.19,902.19,0,0,0-95.7,66.5c-2.83,2.24-6.34,5.09-9.85,7.93s-7,5.75-9.85,7.94c-6.8,5.19-13.34,10.56-19.87,15.79-3.28,2.61-6.44,5.32-9.64,8s-6.37,5.3-9.51,8c-12.49,10.76-24.71,21.52-36.57,32.64,5.68-5.31,11.54-10.46,17.42-15.69l4.43-3.93,4.5-3.87,9.07-7.8Z" transform="translate(-476.17 -161)"/></svg>